<svg width="41" height="40" viewBox="0 0 41 40" fill="none" xmlns="http://www.w3.org/2000/svg">
<path fill-rule="evenodd" clip-rule="evenodd" d="M14.5587 15.4698L14.0283 14.9395L12.9677 16.0001L13.498 16.5304L16.2177 19.2501H9.02832L9.02832 20.7501H16.2177L13.498 23.4698L12.9677 24.0001L14.0283 25.0608L14.5587 24.5304L18.5587 20.5304L19.089 20.0001L18.5587 19.4698L14.5587 15.4698ZM23.839 19.2501L31.0283 19.2501L31.0283 20.7501L23.839 20.7501L26.5587 23.4698L27.089 24.0001L26.0283 25.0608L25.498 24.5304L21.498 20.5304L20.9677 20.0001L21.498 19.4698L25.498 15.4698L26.0283 14.9395L27.089 16.0001L26.5587 16.5304L23.839 19.2501Z" fill="black"/>
</svg>
